<mxfile host="app.diagrams.net" modified="2023-09-08T06:58:41.256Z" agent="Mozilla/5.0 (Windows NT 10.0; Win64; x64) AppleWebKit/537.36 (KHTML, like Gecko) Chrome/116.0.0.0 Safari/537.36" etag="4JCIq7CaGIA1pNRl7srJ" version="21.7.1" type="github">
  <diagram name="Page-1" id="97916047-d0de-89f5-080d-49f4d83e522f">
    <mxGraphModel dx="2049" dy="1140" grid="1" gridSize="10" guides="1" tooltips="1" connect="1" arrows="1" fold="1" page="1" pageScale="1.5" pageWidth="1169" pageHeight="827" background="none" math="0" shadow="0">
      <root>
        <mxCell id="0" />
        <mxCell id="1" parent="0" />
        <mxCell id="2" value="CEO&#xa;Jacques Bonjawo" style="rounded=1;fillColor=#10739E;strokeColor=none;shadow=1;gradientColor=none;fontStyle=1;fontColor=#FFFFFF;fontSize=18;" parent="1" vertex="1">
          <mxGeometry x="672" y="50" width="494" height="105.5" as="geometry" />
        </mxCell>
        <mxCell id="3" value="Directrice AcadÃ©mique" style="rounded=1;fillColor=#10739E;strokeColor=none;shadow=1;gradientColor=none;fontStyle=1;fontColor=#FFFFFF;fontSize=18;" parent="1" vertex="1">
          <mxGeometry x="745" y="500" width="348" height="60" as="geometry" />
        </mxCell>
        <mxCell id="7" value="Chief Technology Officer&#xa;Dorian Nogneng" style="rounded=1;fillColor=#10739E;strokeColor=none;shadow=1;gradientColor=none;fontStyle=1;fontColor=#FFFFFF;fontSize=18;" parent="1" vertex="1">
          <mxGeometry x="1060" y="305" width="360" height="90" as="geometry" />
        </mxCell>
        <mxCell id="29" value="" style="edgeStyle=elbowEdgeStyle;elbow=vertical;strokeWidth=4;endArrow=block;endFill=1;fontStyle=1;strokeColor=#23445D;" parent="1" source="2" target="3" edge="1">
          <mxGeometry x="22" y="165.5" width="100" height="100" as="geometry">
            <mxPoint x="22" y="265.5" as="sourcePoint" />
            <mxPoint x="122" y="165.5" as="targetPoint" />
          </mxGeometry>
        </mxCell>
        <mxCell id="7ujSnZVlotJwcw6J5cbu-57" style="edgeStyle=orthogonalEdgeStyle;rounded=0;orthogonalLoop=1;jettySize=auto;html=1;exitX=1;exitY=0.5;exitDx=0;exitDy=0;entryX=0;entryY=0.5;entryDx=0;entryDy=0;strokeWidth=4;startArrow=classic;startFill=1;" edge="1" parent="1" source="7ujSnZVlotJwcw6J5cbu-55" target="7">
          <mxGeometry relative="1" as="geometry" />
        </mxCell>
        <mxCell id="7ujSnZVlotJwcw6J5cbu-55" value="Senior Business Development Manager&#xa;Anshumali Bhushan" style="rounded=1;fillColor=#10739E;strokeColor=none;shadow=1;gradientColor=none;fontStyle=1;fontColor=#FFFFFF;fontSize=18;" vertex="1" parent="1">
          <mxGeometry x="410" y="290" width="390" height="120" as="geometry" />
        </mxCell>
      </root>
    </mxGraphModel>
  </diagram>
</mxfile>
